<?xml version="1.0" encoding="utf-8"?>
<!-- Generator: Adobe Illustrator 21.1.0, SVG Export Plug-In . SVG Version: 6.00 Build 0)  -->
<svg version="1.1" id="Layer_1" xmlns="http://www.w3.org/2000/svg" xmlns:xlink="http://www.w3.org/1999/xlink" x="0px" y="0px"
	 viewBox="0 0 2801 961.6" style="enable-background:new 0 0 2801 961.6;" xml:space="preserve">
<style type="text/css">
	.st0{fill:#4FC9F1;}
	.st1{fill:#4C5352;}
</style>
<g>
	<path class="st0" d="M1900,429.5h-96.8l-170.6,485.4c0.8,2.4,102.6,0,102.6,0l14.9-41.5h198.7l14,41.5c0,0,107.6,0.3,107.3,0
		L1900,429.5z M1776.2,784.5c24.4-70.7,47.8-138.3,73.6-213.1c25.7,74.2,49,141.2,73.9,213.1H1776.2z"/>
	<path class="st0" d="M1628.9,914.8c0-26.5,0.4-66.7,0.4-95.4h-195V428.7h-97.8l0,486.2H1628.9z"/>
	<path class="st0" d="M2074.9,622.6c25.5,0,48.8,0.1,78.1,0.1c-19-27.6-59.5-89.7-78.1-109.5v-83.7h234.9c49.2,5.5,86,42.1,98.7,94
		c14.4,58.4-8,104.1-56.4,136.4l0,0c58.3,24.4,88.1,65.7,77.5,144.3c-7.3,53.8-46,95.7-110.5,102.2c-78,7.9-165.7,7.1-244.3,8.5
		C2074.9,914.8,2074.9,635.1,2074.9,622.6z M2173,820.1c36.2,0,70.3,1.9,104.1-0.5c35.7-2.5,53.4-21.8,54-52.3
		c0.6-30.6-16.5-52.7-50.6-55.8c-35.2-3.3-70.9-0.7-107.5-0.7C2173,747.4,2173,782,2173,820.1z M2173.8,512.8
		c28.1,39.7,54,78.4,77.9,110.3h17.3c26.8-4.8,40.1-22,41.1-48.4c1.1-29.8-10.2-56.5-38.1-61.6L2173.8,512.8z"/>
	<path class="st0" d="M2433,845.8c20.2-25.8,43.6-56.4,59.1-76.1c0,0,56.6,40.4,88.3,51.3c16.8,5.8,39.6,6.3,56.3-0.1
		c13.7-5.3,24.1-21.3,26.6-34.9c3.4-18-5.7-31.4-16.9-40.9c-13.4-11.4-32.3-18.1-48.9-25.6c-23-10.4-46.8-19.4-69.2-31.2
		c-58.3-30.6-79.9-75-71.8-143.7c6.3-52.8,38.1-99.5,96.1-112c80.3-10.5,136.1,2,210.1,45c-18.3,25.2-32,49.9-48,72l-59.3-28.3
		c-17.8-10-47.4-9-56.8-8.1c-20.8,1.9-37.9,14.3-43.9,37.8c-6,23.4,6.5,38.9,25.7,49.1c19.2,10.2,39.3,18.8,59.1,27.9
		c16.6,7.7,33.7,14.5,49.9,23c63.9,33.3,85.3,78.3,76.5,146.3c-7.3,56.3-46.4,99-109.7,112C2573.1,926.3,2499.2,904.4,2433,845.8z"
		/>
	<path class="st1" d="M1825.8,338.9c-14.4,0-23.7,0-34.7,0c0-90.7-0.4-191-0.4-287.6h132.1c40,7,51.4,44.1,50,79.6
		c-1.5,39.4-14.2,60.5-57.4,77.8c23.6,34.8,47,69.4,71.9,106.2c-7.4,6.7-14.6,14.9-24.5,23.7c-20.9-31.1-83.5-123.3-83.5-123.3
		l-53.5-1.2C1825.8,250.9,1825.8,298.1,1825.8,338.9z M1826.3,179.4c22.9,0,43.7,0.8,64.3-0.2c28-1.4,44.4-16.4,45.8-39.9
		c1.9-30.6-4.7-51-28.2-55c-22.6-3.8-81.9-1-81.9-1C1826.3,117.1,1826.3,146.5,1826.3,179.4z"/>
	<path class="st1" d="M2259.4,338.7L2427,84.3c-57.5,0-104.1-0.2-157.2-0.2l15.1-32.6l208.6-0.2c-57.5,87.4-111.6,169.7-168.5,256.1
		l149-0.5l23.1,31.6C2421.3,338.5,2340,338.7,2259.4,338.7z"/>
	<path class="st1" d="M2576.6,51.3c0,0-1.7,141.6,0.5,190c1.8,41.1,31,67.6,71.8,68.4c35.3,0.7,63.8-22.8,66.8-60.8
		c3.3-52.6,7-186.7,7-186.7l32.8-10.9c0,14.1-1.3,175.1-1.3,175.1c-1.5,74-38.3,104.9-82.4,110.3c-86,10.5-130.7-29.1-131.2-116.8
		c-0.3-44.9,2.8-112.9,1-157.8L2576.6,51.3z"/>
	<path class="st1" d="M2120.6,51.3c41,96.1,85.7,196.4,124.5,287.4h-30l-30-65.3l-123.3,0.4l-30.2,64.9l-33.4-0.4L2120.6,51.3z
		 M2166.6,239.1c-15.1-35.6-29.3-69.1-45.9-108.2c-16.3,38.4-30.5,71.8-46,108.2C2107.1,239.1,2135.2,239.1,2166.6,239.1z"/>
	<path class="st1" d="M1264.7,62.4c12.4-4.1,21.9-7.2,33.3-10.9c28.9,68.3,57.1,135,87.3,206.6c26.9-63.6,88.2-206.1,88.2-206.1
		l32.6,10.1c0,0-79,180.3-121,276.6C1343.6,243.4,1304.7,154.1,1264.7,62.4z"/>
	<path class="st1" d="M1662.9,338.7c-11.7,0-20.9,0-34.1,0c0-26.5,1.3-129.1,1.3-129.1l-96.8-147.4l32.8-10.9l80.1,126.4l81.2-126.4
		l30.8,10.9l-92.5,146.9C1665.6,209.1,1662.9,321.8,1662.9,338.7z"/>
	<path class="st1" d="M626.7,254.6l-71.2-17.8L525.9,52.8L388,192.8L34,96.5l569.4,820.4l586.2-824.6L626.7,254.6z M487.4,154.3
		l11.6,67.5l-65-17L487.4,154.3z M167.6,184.3l179.4,50.1l-85.3,86.3L167.6,184.3z M397.1,252l108.4,32.3l0.4,6.4l-187.5,46.7
		L397.1,252z M622.3,794.7l-23.9-199L876.7,440L622.3,794.7z M590.9,541.6l-18.4-166.1l-61.8,15.3l21.1,176.1l-27.9,17.1l34.6,41
		l13.6,113.3c-75.3-111.9-150.5-223.9-228-339l298.4-85.6l256.8,68.2C781.8,435.9,688.5,487.5,590.9,541.6z M947.3,342.2
		l-219.4-59.3l327.2-92.3L947.3,342.2z"/>
	<path class="st0" d="M561.4,272.6L526,52.8L219.4,363.6l384,553.3l586.2-824.6L561.4,272.6z M487.4,154.3l18.1,134.4l-187.1,48.7
		L487.4,154.3z M622.3,794.7l-49.8-419.3l-61.8,15.3l41.4,347.5c-75.3-111.9-150.5-223.9-228-339l730.9-208.7L622.3,794.7z"/>
</g>
</svg>
